<?xml version="1.0" encoding="UTF-8" standalone="no"?>
<!-- Generator: Adobe Illustrator 19.0.0, SVG Export Plug-In . SVG Version: 6.00 Build 0)  -->

<svg
   xmlns:dc="http://purl.org/dc/elements/1.1/"
   xmlns:cc="http://creativecommons.org/ns#"
   xmlns:rdf="http://www.w3.org/1999/02/22-rdf-syntax-ns#"
   xmlns:svg="http://www.w3.org/2000/svg"
   xmlns="http://www.w3.org/2000/svg"
   xmlns:sodipodi="http://sodipodi.sourceforge.net/DTD/sodipodi-0.dtd"
   xmlns:inkscape="http://www.inkscape.org/namespaces/inkscape"
   version="1.1"
   id="Layer_1"
   x="0px"
   y="0px"
   viewBox="0 0 30 30"
   style="enable-background:new 0 0 30 30;"
   xml:space="preserve"
   sodipodi:docname="call.svg"
   inkscape:version="0.92.2 (5c3e80d, 2017-08-06)"><metadata
     id="metadata9"><rdf:RDF><cc:Work
         rdf:about=""><dc:format>image/svg+xml</dc:format><dc:type
           rdf:resource="http://purl.org/dc/dcmitype/StillImage" /><dc:title></dc:title></cc:Work></rdf:RDF></metadata><defs
     id="defs7" /><sodipodi:namedview
     pagecolor="#ffffff"
     bordercolor="#666666"
     borderopacity="1"
     objecttolerance="10"
     gridtolerance="10"
     guidetolerance="10"
     inkscape:pageopacity="0"
     inkscape:pageshadow="2"
     inkscape:window-width="1984"
     inkscape:window-height="1329"
     id="namedview5"
     showgrid="false"
     inkscape:zoom="7.8666667"
     inkscape:cx="15.254237"
     inkscape:cy="15"
     inkscape:window-x="0"
     inkscape:window-y="55"
     inkscape:window-maximized="0"
     inkscape:current-layer="Layer_1" /><g
     id="XMLID_94_"
     transform="matrix(-1,0,0,1,30,0)"
     style="fill:#202020;fill-opacity:1;opacity:1"><path
       id="XMLID_272_"
       d="m 25.2,19 c -1.5,0 -3,-0.2 -4.4,-0.7 -0.6,-0.2 -1.4,0 -1.8,0.4 l -2.8,2.1 c -3.3,-1.7 -5.3,-3.8 -7,-7 L 11.3,11 C 11.8,10.5 11.9,9.8 11.7,9.2 11.3,7.8 11,6.3 11,4.8 11,3.8 10.2,3 9.2,3 H 4.8 C 3.8,3 3,3.8 3,4.8 3,17 13,27 25.2,27 26.2,27 27,26.2 27,25.2 V 20.7 C 27,19.8 26.2,19 25.2,19 Z"
       inkscape:connector-curvature="0"
       style="fill:#202020;fill-opacity:1" /></g></svg>