<?xml version="1.0" encoding="UTF-8" standalone="no"?>
<!-- Generator: Adobe Illustrator 19.0.0, SVG Export Plug-In . SVG Version: 6.00 Build 0)  -->

<svg
   xmlns:dc="http://purl.org/dc/elements/1.1/"
   xmlns:cc="http://creativecommons.org/ns#"
   xmlns:rdf="http://www.w3.org/1999/02/22-rdf-syntax-ns#"
   xmlns:svg="http://www.w3.org/2000/svg"
   xmlns="http://www.w3.org/2000/svg"
   xmlns:sodipodi="http://sodipodi.sourceforge.net/DTD/sodipodi-0.dtd"
   xmlns:inkscape="http://www.inkscape.org/namespaces/inkscape"
   version="1.1"
   id="Layer_1"
   x="0px"
   y="0px"
   viewBox="0 0 30 30"
   style="enable-background:new 0 0 30 30;"
   xml:space="preserve"
   sodipodi:docname="email.svg"
   inkscape:version="0.92.2 (5c3e80d, 2017-08-06)"><metadata
     id="metadata9"><rdf:RDF><cc:Work
         rdf:about=""><dc:format>image/svg+xml</dc:format><dc:type
           rdf:resource="http://purl.org/dc/dcmitype/StillImage" /><dc:title></dc:title></cc:Work></rdf:RDF></metadata><defs
     id="defs7" /><sodipodi:namedview
     pagecolor="#ffffff"
     bordercolor="#666666"
     borderopacity="1"
     objecttolerance="10"
     gridtolerance="10"
     guidetolerance="10"
     inkscape:pageopacity="0"
     inkscape:pageshadow="2"
     inkscape:window-width="1846"
     inkscape:window-height="1459"
     id="namedview5"
     showgrid="false"
     inkscape:zoom="7.8666667"
     inkscape:cx="15.254237"
     inkscape:cy="15"
     inkscape:window-x="0"
     inkscape:window-y="55"
     inkscape:window-maximized="0"
     inkscape:current-layer="Layer_1" /><path
     d="M 25.275423,6.779661 H 4.7245764 c -1.1508474,0 -2.0550847,0.9042373 -2.0550847,2.055085 v 12.330508 c 0,1.150848 0.9042373,2.055085 2.0550847,2.055085 H 25.275423 c 1.150848,0 2.055085,-0.904237 2.055085,-2.055085 V 8.834746 c 0,-1.1508477 -0.904236,-2.055085 -2.055085,-2.055085 z m -13.727965,8.96017 -5.7542375,4.932203 c -0.082203,0.0822 -0.1644068,0.0822 -0.2466102,0.0822 -0.082203,0 -0.2466101,-0.0822 -0.3288135,-0.164406 C 5.05339,20.425421 5.05339,20.178811 5.2999998,20.014404 L 11.054237,15.0822 c 0.164407,-0.164406 0.411017,-0.164406 0.575424,0.0822 0.164406,0.164407 0.0822,0.411017 -0.0822,0.575424 z m 3.205931,0.0822 c -0.575423,0 -1.233051,-0.164407 -1.644067,-0.49322 L 5.3000002,9.985593 C 5.1355934,9.903393 5.05339,9.574576 5.2177972,9.41017 5.3000002,9.245763 5.5466107,9.163559 5.7932209,9.32797 l 7.8093221,5.34322 c 0.657627,0.493221 1.726271,0.493221 2.383898,0 l 8.220338,-5.34322 c 0.164407,-0.164407 0.411017,-0.0822 0.575425,0.0822 0.164407,0.164406 0.0822,0.411016 -0.0822,0.575423 l -8.220338,5.343221 c -0.49322,0.328813 -1.068644,0.49322 -1.726271,0.49322 z m 10.028815,4.767797 c -0.0822,0.0822 -0.164408,0.164406 -0.328815,0.164406 -0.0822,0 -0.164406,0 -0.24661,-0.0822 L 18.452542,15.739831 C 18.288135,15.575424 18.288135,15.328814 18.370342,15.164407 18.452542,15 18.781359,15 18.945767,15.082207 l 5.754236,4.932204 c 0.164408,0.164407 0.246612,0.411017 0.0822,0.575424 z"
     id="path2"
     inkscape:connector-curvature="0"
     style="stroke-width:0.82203388;fill:#202020;fill-opacity:1" /></svg>