<svg xmlns="http://www.w3.org/2000/svg" viewBox="0 0 960 375"><text style="line-height:0%" x="405.048" y="1107.873" font-weight="400" font-family="sans-serif" letter-spacing="0" word-spacing="0" fill="#989898" transform="translate(-170.463 -187.076)"><tspan x="405.048" y="1107.873" style="line-height:1.25;-inkscape-font-specification:'Lato Light'" font-weight="300" font-size="57.5" font-family="Lato" letter-spacing="-.4"></tspan></text><path fill="#fff" fill-opacity=".03" d="M0 0h960v375H0z"/><g style="line-height:0%;-inkscape-font-specification:Lato"><path style="line-height:1.25;-inkscape-font-specification:'Lato Bold'" d="M398.282 304.717q.787 0 1.396.608l3.792 4.115q-3.148 3.9-7.764 5.975-4.58 2.075-11.02 2.075-5.761 0-10.377-1.968-4.58-1.968-7.836-5.474-3.256-3.506-5.009-8.373-1.717-4.866-1.717-10.626 0-5.833 1.86-10.663 1.86-4.866 5.224-8.373 3.4-3.506 8.087-5.438 4.687-1.968 10.376-1.968 5.653 0 10.018 1.86 4.401 1.861 7.479 4.867l-3.22 4.472q-.287.43-.752.752-.43.322-1.217.322-.536 0-1.109-.287-.572-.322-1.252-.751-.68-.465-1.574-1.002-.895-.537-2.076-.966-1.18-.465-2.755-.751-1.538-.322-3.578-.322-3.47 0-6.369 1.252-2.862 1.216-4.937 3.578-2.076 2.326-3.22 5.725-1.146 3.363-1.146 7.693 0 4.365 1.217 7.764 1.252 3.4 3.363 5.725 2.111 2.326 4.974 3.578 2.862 1.216 6.154 1.216 1.968 0 3.542-.214 1.61-.215 2.934-.68 1.36-.465 2.54-1.18 1.217-.752 2.398-1.826.358-.322.751-.5.394-.215.823-.215zm20.956 4.258h20.68v7.943h-30.305v-51.739h9.625zm46.459.179q2.791 0 4.974-.93 2.218-.931 3.72-2.613 1.504-1.681 2.29-4.079.824-2.397.824-5.367V265.18h9.625v30.986q0 4.616-1.503 8.552-1.467 3.9-4.258 6.762-2.755 2.827-6.727 4.437-3.971 1.574-8.945 1.574-5.01 0-8.98-1.574-3.972-1.61-6.763-4.437-2.755-2.862-4.258-6.762-1.467-3.936-1.467-8.552V265.18h9.625v30.95q0 2.97.787 5.367.823 2.398 2.326 4.115 1.538 1.682 3.72 2.612 2.22.93 5.01.93zm59.318-34.564q-.43.751-.93 1.109-.465.322-1.181.322-.751 0-1.646-.537-.859-.572-2.075-1.252-1.217-.68-2.863-1.217-1.61-.572-3.828-.572-2.004 0-3.507.5-1.502.466-2.54 1.325-1.002.858-1.503 2.075-.5 1.18-.5 2.612 0 1.825 1.001 3.041 1.038 1.217 2.72 2.075 1.681.86 3.828 1.539 2.147.68 4.4 1.467 2.255.751 4.402 1.789 2.147 1.002 3.828 2.576 1.682 1.539 2.684 3.793 1.038 2.254 1.038 5.474 0 3.507-1.217 6.584-1.18 3.041-3.506 5.331-2.29 2.254-5.618 3.578-3.328 1.288-7.621 1.288-2.47 0-4.866-.5-2.398-.466-4.616-1.36-2.183-.895-4.115-2.147-1.932-1.252-3.435-2.79l2.827-4.617q.358-.5.93-.823.573-.357 1.217-.357.894 0 1.932.751 1.038.716 2.469 1.61 1.431.895 3.327 1.646 1.932.716 4.616.716 4.115 0 6.369-1.932 2.254-1.968 2.254-5.618 0-2.04-1.038-3.328-1.001-1.288-2.683-2.146-1.682-.895-3.829-1.503-2.146-.608-4.365-1.324-2.218-.716-4.365-1.718-2.147-1.001-3.828-2.612-1.682-1.61-2.72-4.007-1.002-2.433-1.002-5.975 0-2.827 1.11-5.51 1.145-2.684 3.291-4.76 2.147-2.075 5.296-3.327 3.149-1.252 7.227-1.252 4.58 0 8.445 1.431 3.864 1.431 6.583 4.007zm20.864 42.328h-9.66v-51.739h9.66zm4.909-51.738h7.729q1.252 0 2.04.608.786.608 1.18 1.574l12.201 31.558q.608 1.539 1.145 3.4.573 1.824 1.074 3.828.393-2.004.894-3.829.537-1.86 1.145-3.399l12.13-31.558q.286-.823 1.109-1.503.858-.68 2.075-.68h7.764l-20.895 51.739h-8.695zm88.022 0v7.656h-22.97v14.348h18.105v7.407H615.84v14.634h22.97v7.693h-32.63v-51.739z" aria-label="CLUSIVE" font-weight="700" font-family="Lato" letter-spacing="-.4" word-spacing="0" fill="#707070" font-size="55"/></g><g style="line-height:0%;-inkscape-font-specification:Lato"><path style="line-height:1.25;-inkscape-font-specification:'Lato Bold'" d="M306.945 264.958v7.657h-22.971v14.348h18.105v7.407h-18.105v14.634h22.97v7.693h-32.63v-51.739z" font-weight="700" font-size="55" letter-spacing="-.4" aria-label="E" font-family="Lato" word-spacing="0" fill="#707070"/></g><g style="line-height:0%;-inkscape-font-specification:'Lato Light'"><path style="line-height:1.25;-inkscape-font-specification:Lato" d="M872.975 283.675h9.076v2.386h-11.9v-20.975h2.824zm23.652-18.589v2.386h-6.792v18.59h-2.825v-18.59h-6.806v-2.386zm21.263 10.494q0 2.357-.746 4.29-.746 1.932-2.107 3.308-1.362 1.376-3.28 2.137-1.902.746-4.215.746h-7.83v-20.975h7.83q2.313 0 4.216.76 1.917.747 3.279 2.138 1.36 1.376 2.107 3.308.747 1.932.747 4.289zm-2.912 0q0-1.931-.527-3.454-.527-1.522-1.493-2.576-.966-1.054-2.342-1.61-1.376-.556-3.074-.556h-4.991v16.38h4.991q1.698 0 3.074-.557 1.376-.556 2.342-1.596.966-1.053 1.493-2.576.527-1.522.527-3.454z" aria-label="LTD" font-weight="400" font-family="Lato" letter-spacing="0" word-spacing="0" fill="#707070" font-size="22.5"/></g><g style="line-height:0%"><path style="line-height:1.25;-inkscape-font-specification:'Lato Light'" d="M662.249 316.663v-51.78h14.893q4.428 0 7.685.879 3.257.878 5.38 2.598 2.122 1.683 3.146 4.135 1.025 2.452 1.025 5.562 0 2.05-.732 3.952-.695 1.903-2.05 3.513-1.353 1.61-3.33 2.818-1.939 1.17-4.427 1.793 6.111.915 9.368 4.098 3.293 3.147 3.293 8.27 0 3.294-1.17 5.929-1.172 2.634-3.404 4.464-2.232 1.83-5.489 2.818-3.257.951-7.392.951zm3.769-24.81v21.81h12.99q6.807 0 10.283-2.928 3.513-2.964 3.513-8.307 0-2.451-.951-4.39-.915-1.977-2.671-3.33-1.757-1.391-4.318-2.123-2.562-.732-5.819-.732zm0-2.745h11.198q3.586 0 6.11-.915 2.562-.914 4.172-2.415 1.647-1.5 2.416-3.403.768-1.903.768-3.915 0-5.233-3.33-7.905-3.293-2.708-10.21-2.708h-11.124zm61.5 24.884q3.733 0 6.66-1.28 2.964-1.318 5.013-3.624 2.05-2.305 3.11-5.415 1.099-3.148 1.099-6.77v-32.02h3.732v32.02q0 4.281-1.354 8.014-1.354 3.696-3.915 6.477-2.525 2.744-6.185 4.318-3.622 1.573-8.16 1.573t-8.197-1.573q-3.623-1.574-6.184-4.318-2.525-2.781-3.88-6.477-1.353-3.733-1.353-8.014v-32.02h3.769v31.983q0 3.623 1.061 6.77 1.098 3.11 3.11 5.416 2.05 2.305 4.977 3.623 2.965 1.317 6.697 1.317zm37.989 2.671h-3.77v-51.78h3.77zm19.011-3.183h24.518v3.183H780.75v-51.78h3.77zm76.873-22.725q0 6.001-1.793 10.795t-5.05 8.16q-3.257 3.367-7.83 5.16-4.538 1.793-10.027 1.793h-18.92v-51.78h18.92q5.489 0 10.026 1.793 4.574 1.793 7.831 5.16 3.257 3.367 5.05 8.16 1.793 4.794 1.793 10.759zm-3.879 0q0-5.416-1.5-9.66-1.5-4.246-4.245-7.173-2.744-2.928-6.587-4.465-3.842-1.536-8.49-1.536h-15.15v45.705h15.15q4.648 0 8.49-1.537 3.843-1.537 6.587-4.464 2.745-2.928 4.245-7.173t1.5-9.697z" aria-label="BUILD" font-weight="300" font-family="Lato" letter-spacing="0" word-spacing="0" fill="#707070" font-size="56.25"/></g><g style="line-height:0%"><path style="line-height:1.25;-inkscape-font-specification:'Lato Light'" d="M74.527 295.33v21.333h-3.733V295.33L51.62 264.883h3.293q.513 0 .842.256.33.22.549.66l14.82 23.785q.476.842.842 1.647.403.768.695 1.537.293-.769.659-1.537.403-.805.878-1.647l14.82-23.786q.184-.402.513-.659.366-.256.878-.256h3.294zm71.174-4.575q0 6.001-1.793 10.905-1.793 4.867-5.05 8.343-3.257 3.44-7.83 5.343-4.538 1.866-10.027 1.866-5.49 0-10.027-1.866-4.538-1.903-7.795-5.343-3.256-3.476-5.05-8.343-1.793-4.904-1.793-10.905 0-5.965 1.794-10.832 1.793-4.903 5.05-8.343 3.256-3.476 7.794-5.38 4.537-1.902 10.027-1.902 5.489 0 10.026 1.903 4.574 1.866 7.831 5.342 3.257 3.477 5.05 8.38 1.793 4.867 1.793 10.832zm-3.879 0q0-5.416-1.5-9.734t-4.245-7.319q-2.744-3-6.587-4.574-3.842-1.61-8.49-1.61-4.61 0-8.453 1.61-3.842 1.574-6.623 4.574-2.745 3.001-4.281 7.32-1.5 4.317-1.5 9.733 0 5.452 1.5 9.77 1.536 4.282 4.281 7.283 2.781 3 6.623 4.574 3.843 1.573 8.454 1.573 4.647 0 8.49-1.573 3.842-1.574 6.586-4.574 2.745-3.001 4.245-7.283 1.5-4.318 1.5-9.77zm34.728 23.237q3.733 0 6.66-1.28 2.965-1.318 5.014-3.624 2.05-2.305 3.11-5.415 1.098-3.148 1.098-6.77v-32.02h3.733v32.02q0 4.281-1.354 8.014-1.354 3.696-3.915 6.477-2.525 2.744-6.185 4.318-3.623 1.573-8.16 1.573-4.538 0-8.197-1.573-3.623-1.574-6.184-4.318-2.525-2.781-3.88-6.477-1.353-3.733-1.353-8.014v-32.02h3.769v31.983q0 3.623 1.061 6.77 1.098 3.11 3.11 5.416 2.05 2.305 4.977 3.623 2.964 1.317 6.697 1.317zm37.99-20.749v23.42h-3.77v-51.78h13.247q8.93 0 13.357 3.477 4.464 3.44 4.464 10.136 0 2.964-1.06 5.416-1.025 2.452-2.965 4.318-1.903 1.83-4.647 3.037-2.708 1.171-6.075 1.537.878.55 1.574 1.464l17.82 22.395h-3.22q-.622 0-1.06-.183-.403-.22-.77-.768l-16.613-21.005q-.292-.402-.622-.695-.292-.293-.695-.44-.366-.182-.915-.255-.512-.074-1.28-.074zm0-2.78h8.965q3.44 0 6.148-.806 2.744-.842 4.61-2.378 1.903-1.537 2.891-3.696.988-2.16.988-4.867 0-5.526-3.622-8.197-3.586-2.672-10.503-2.672h-9.477z" aria-label="YOUR" font-weight="300" font-family="Lato" letter-spacing="0" word-spacing="0" fill="#707070" font-size="56.25"/></g><path d="M265.414 131.352l-46.006 99.866 563.289-2.245-85.279-94.255-90.889 42.64-26.93-86.402-130.163-52.738-59.47 133.529z" fill="#fff" fill-rule="evenodd"/><path d="M263.874 120.372l-52.293 117.1h8.54l43.753-97.972 43.752 97.971h8.542zM449.62 29.294L356.654 237.47h8.486l84.48-189.176 84.482 189.176h8.486zm249.096 98.884L594.627 237.471h16.11l87.979-92.376 87.98 92.376h16.108z" fill="#5fde4b" fill-rule="evenodd"/><path d="M263.874 120.371l52.056 117.1 40.855.001 36.17-80.929zM449.62 29.294l86.463 208.177h69.994l92.639-109.293-74.163 31.228-29.926-78.067z" fill="#5fde4b" fill-rule="evenodd"/><path fill="#5fde4b" d="M30.17 224.461h898.77v13.011H30.17z"/><path fill="#707070" d="M215.595 31.352l7.128-3.183L363.98 344.481l-7.129 3.183z"/><path fill="#707070" d="M457.194 31.353l-7.128-3.184L308.81 344.481l7.128 3.184z"/><path d="M450.602 30.276l-.983 18.017 2.302 4.047 23.46-13.746z" fill="#5fde4b" fill-rule="evenodd"/><path d="M449.62 29.294l-56.806 127.208-128.94-36.131L217.39 224.46H29.686v13.013h900.628V224.46H790.412l-91.696-96.282-74.164 31.226-29.925-78.067z" fill="none" stroke="#707070" stroke-width="3.123"/><path d="M425.483 156.803h49.442v28.625h-49.442zm-7.806 0h4.423v28.625h-4.423zm60.631 0h4.424v28.625h-4.424zM252.403 191.23h22.813v13.207h-22.813zm-3.603 0h2.042v13.207h-2.041zm27.977 0h2.04v13.207h-2.04zm408.095-3.616h27.688v16.03h-27.688zm-4.372 0h2.478v16.03H680.5zm33.954 0h2.477v16.03h-2.477z" fill="#707070"/></svg>